# Blender v2.65 (sub 0) OBJ File: ''
# www.blender.org
o Cylinder
v 0.000000 -1.000000 -1.000000
v 0.000000 1.000000 -1.000000
v 0.195090 -1.000000 -0.980785
v 0.195090 1.000000 -0.980785
v 0.382683 -1.000000 -0.923880
v 0.382683 1.000000 -0.923880
v 0.555570 -1.000000 -0.831470
v 0.555570 1.000000 -0.831470
v 0.707107 -1.000000 -0.707107
v 0.707107 1.000000 -0.707107
v 0.831470 -1.000000 -0.555570
v 0.831470 1.000000 -0.555570
v 0.923880 -1.000000 -0.382683
v 0.923880 1.000000 -0.382683
v 0.980785 -1.000000 -0.195090
v 0.980785 1.000000 -0.195090
v 1.000000 -1.000000 -0.000000
v 1.000000 1.000000 -0.000000
v 0.980785 -1.000000 0.195090
v 0.980785 1.000000 0.195090
v 0.923880 -1.000000 0.382683
v 0.923880 1.000000 0.382683
v 0.831470 -1.000000 0.555570
v 0.831470 1.000000 0.555570
v 0.707107 -1.000000 0.707107
v 0.707107 1.000000 0.707107
v 0.555570 -1.000000 0.831470
v 0.555570 1.000000 0.831470
v 0.382683 -1.000000 0.923880
v 0.382683 1.000000 0.923880
v 0.195090 -1.000000 0.980785
v 0.195090 1.000000 0.980785
v -0.000000 -1.000000 1.000000
v -0.000000 1.000000 1.000000
v -0.195091 -1.000000 0.980785
v -0.195091 1.000000 0.980785
v -0.382684 -1.000000 0.923879
v -0.382684 1.000000 0.923879
v -0.555571 -1.000000 0.831469
v -0.555571 1.000000 0.831469
v -0.707107 -1.000000 0.707106
v -0.707107 1.000000 0.707106
v -0.831470 -1.000000 0.555570
v -0.831470 1.000000 0.555570
v -0.923880 -1.000000 0.382683
v -0.923880 1.000000 0.382683
v -0.980785 -1.000000 0.195089
v -0.980785 1.000000 0.195089
v -1.000000 -1.000000 -0.000001
v -1.000000 1.000000 -0.000001
v -0.980785 -1.000000 -0.195091
v -0.980785 1.000000 -0.195091
v -0.923879 -1.000000 -0.382684
v -0.923879 1.000000 -0.382684
v -0.831469 -1.000000 -0.555571
v -0.831469 1.000000 -0.555571
v -0.707106 -1.000000 -0.707108
v -0.707106 1.000000 -0.707108
v -0.555569 -1.000000 -0.831470
v -0.555569 1.000000 -0.831470
v -0.382682 -1.000000 -0.923880
v -0.382682 1.000000 -0.923880
v -0.195089 -1.000000 -0.980786
v -0.195089 1.000000 -0.980786
vt 0.610382 0.610732
vt 0.610382 0.999825
vt 0.572244 0.999825
vt 0.572244 0.610732
vt 0.534106 0.999825
vt 0.534106 0.610732
vt 0.495968 0.999825
vt 0.495968 0.610732
vt 0.457830 0.999825
vt 0.457830 0.610732
vt 0.419692 0.999825
vt 0.419692 0.610732
vt 0.381554 0.999825
vt 0.381554 0.610732
vt 0.343416 0.999825
vt 0.343416 0.610732
vt 0.305278 0.999825
vt 0.305279 0.610732
vt 0.267140 0.999825
vt 0.267141 0.610732
vt 0.229002 0.999825
vt 0.229003 0.610732
vt 0.190864 0.999825
vt 0.190865 0.610732
vt 0.152726 0.999825
vt 0.152727 0.610732
vt 0.114588 0.999825
vt 0.114589 0.610732
vt 0.076451 0.999825
vt 0.076451 0.610732
vt 0.038313 0.999825
vt 0.038314 0.610732
vt 0.000175 0.999825
vt 0.000176 0.610732
vt 0.000175 0.000175
vt 0.389270 0.000177
vt 0.389269 0.038315
vt 0.000175 0.038313
vt 0.389269 0.076453
vt 0.000175 0.076451
vt 0.389269 0.114591
vt 0.000175 0.114589
vt 0.389269 0.152729
vt 0.000175 0.152727
vt 0.389269 0.190867
vt 0.000175 0.190865
vt 0.389269 0.229005
vt 0.000175 0.229003
vt 0.389269 0.267142
vt 0.000175 0.267141
vt 0.389269 0.305280
vt 0.000175 0.305279
vt 0.389268 0.343418
vt 0.000175 0.343417
vt 0.389268 0.381556
vt 0.000175 0.381555
vt 0.389268 0.419694
vt 0.000175 0.419693
vt 0.389268 0.457831
vt 0.000175 0.457831
vt 0.389268 0.495969
vt 0.000175 0.495969
vt 0.389268 0.534107
vt 0.000175 0.534107
vt 0.564160 0.000175
vt 0.526755 0.007615
vt 0.491521 0.022210
vt 0.459811 0.043398
vt 0.602298 0.000175
vt 0.432843 0.070365
vt 0.639703 0.007615
vt 0.411655 0.102076
vt 0.674938 0.022210
vt 0.397060 0.137310
vt 0.706648 0.043398
vt 0.389620 0.174715
vt 0.733616 0.070366
vt 0.389619 0.212853
vt 0.754804 0.102076
vt 0.397060 0.250258
vt 0.769399 0.137311
vt 0.411654 0.285493
vt 0.776839 0.174717
vt 0.432842 0.317204
vt 0.776839 0.212854
vt 0.459810 0.344171
vt 0.769399 0.250260
vt 0.491520 0.365360
vt 0.754804 0.285495
vt 0.526755 0.379955
vt 0.733616 0.317205
vt 0.564160 0.387395
vt 0.706648 0.344172
vt 0.602298 0.387395
vt 0.674938 0.365360
vt 0.639703 0.379955
vt 0.389268 0.610382
vt 0.000175 0.610382
vt 0.000175 0.572245
vt 0.389268 0.572245
vt 0.712633 0.632767
vt 0.747867 0.618172
vt 0.680923 0.653955
vt 0.653955 0.680922
vt 0.785273 0.610732
vt 0.632767 0.712632
vt 0.823410 0.610732
vt 0.618172 0.747867
vt 0.860816 0.618172
vt 0.610732 0.785272
vt 0.896050 0.632767
vt 0.610732 0.823410
vt 0.927761 0.653955
vt 0.618172 0.860815
vt 0.954728 0.680923
vt 0.632767 0.896050
vt 0.975917 0.712634
vt 0.653955 0.927760
vt 0.990511 0.747868
vt 0.680922 0.954728
vt 0.997952 0.785274
vt 0.712633 0.975916
vt 0.997951 0.823412
vt 0.747867 0.990511
vt 0.990511 0.860817
vt 0.785272 0.997952
vt 0.975916 0.896052
vt 0.823410 0.997952
vt 0.954728 0.927762
vt 0.860815 0.990512
vt 0.927760 0.954730
vt 0.896050 0.975918
vn 0.098017 0.000000 -0.995185
vn 0.290285 0.000000 -0.956940
vn 0.471397 0.000000 -0.881921
vn 0.634393 0.000000 -0.773010
vn 0.773010 0.000000 -0.634393
vn 0.881921 0.000000 -0.471397
vn 0.956940 0.000000 -0.290285
vn 0.995185 0.000000 -0.098017
vn 0.995185 0.000000 0.098017
vn 0.956940 0.000000 0.290285
vn 0.881921 0.000000 0.471396
vn 0.773010 0.000000 0.634393
vn 0.634393 0.000000 0.773010
vn 0.471397 0.000000 0.881921
vn 0.290284 0.000000 0.956940
vn 0.098017 0.000000 0.995185
vn -0.098018 0.000000 0.995185
vn -0.290285 0.000000 0.956940
vn -0.471397 0.000000 0.881921
vn -0.634394 0.000000 0.773010
vn -0.773011 0.000000 0.634393
vn -0.881922 0.000000 0.471396
vn -0.956941 0.000000 0.290284
vn -0.995185 0.000000 0.098016
vn -0.995185 0.000000 -0.098018
vn -0.956940 0.000000 -0.290286
vn -0.881921 0.000000 -0.471398
vn -0.773010 0.000000 -0.634394
vn -0.634392 0.000000 -0.773011
vn -0.471395 0.000000 -0.881922
vn -0.000000 1.000000 0.000000
vn -0.098017 0.000000 -0.995185
vn -0.290283 0.000000 -0.956941
vn 0.000000 -1.000000 -0.000000
s off
f 1/1/1 2/2/1 4/3/1
f 1/1/1 4/3/1 3/4/1
f 3/4/2 4/3/2 6/5/2
f 3/4/2 6/5/2 5/6/2
f 5/6/3 6/5/3 8/7/3
f 5/6/3 8/7/3 7/8/3
f 7/8/4 8/7/4 10/9/4
f 7/8/4 10/9/4 9/10/4
f 9/10/5 10/9/5 12/11/5
f 9/10/5 12/11/5 11/12/5
f 11/12/6 12/11/6 14/13/6
f 11/12/6 14/13/6 13/14/6
f 13/14/7 14/13/7 16/15/7
f 13/14/7 16/15/7 15/16/7
f 15/16/8 16/15/8 18/17/8
f 15/16/8 18/17/8 17/18/8
f 17/18/9 18/17/9 20/19/9
f 17/18/9 20/19/9 19/20/9
f 19/20/10 20/19/10 22/21/10
f 19/20/10 22/21/10 21/22/10
f 21/22/11 22/21/11 24/23/11
f 21/22/11 24/23/11 23/24/11
f 23/24/12 24/23/12 26/25/12
f 23/24/12 26/25/12 25/26/12
f 25/26/13 26/25/13 28/27/13
f 25/26/13 28/27/13 27/28/13
f 27/28/14 28/27/14 30/29/14
f 27/28/14 30/29/14 29/30/14
f 29/30/15 30/29/15 32/31/15
f 29/30/15 32/31/15 31/32/15
f 31/32/16 32/31/16 34/33/16
f 31/32/16 34/33/16 33/34/16
f 33/35/17 34/36/17 36/37/17
f 33/35/17 36/37/17 35/38/17
f 35/38/18 36/37/18 38/39/18
f 35/38/18 38/39/18 37/40/18
f 37/40/19 38/39/19 40/41/19
f 37/40/19 40/41/19 39/42/19
f 39/42/20 40/41/20 42/43/20
f 39/42/20 42/43/20 41/44/20
f 41/44/21 42/43/21 44/45/21
f 41/44/21 44/45/21 43/46/21
f 43/46/22 44/45/22 46/47/22
f 43/46/22 46/47/22 45/48/22
f 45/48/23 46/47/23 48/49/23
f 45/48/23 48/49/23 47/50/23
f 47/50/24 48/49/24 50/51/24
f 47/50/24 50/51/24 49/52/24
f 49/52/25 50/51/25 52/53/25
f 49/52/25 52/53/25 51/54/25
f 51/54/26 52/53/26 54/55/26
f 51/54/26 54/55/26 53/56/26
f 53/56/27 54/55/27 56/57/27
f 53/56/27 56/57/27 55/58/27
f 55/58/28 56/57/28 58/59/28
f 55/58/28 58/59/28 57/60/28
f 57/60/29 58/59/29 60/61/29
f 57/60/29 60/61/29 59/62/29
f 59/62/30 60/61/30 62/63/30
f 59/62/30 62/63/30 61/64/30
f 4/65/31 2/66/31 64/67/31
f 4/65/31 64/67/31 62/68/31
f 4/65/31 62/68/31 6/69/31
f 62/68/31 60/70/31 6/69/31
f 60/70/31 8/71/31 6/69/31
f 60/70/31 58/72/31 8/71/31
f 58/72/31 10/73/31 8/71/31
f 58/72/31 56/74/31 10/73/31
f 56/74/31 12/75/31 10/73/31
f 56/74/31 54/76/31 12/75/31
f 54/76/31 14/77/31 12/75/31
f 54/76/31 52/78/31 14/77/31
f 52/78/31 16/79/31 14/77/31
f 52/78/31 50/80/31 16/79/31
f 50/80/31 18/81/31 16/79/31
f 50/80/31 48/82/31 18/81/31
f 48/82/31 20/83/31 18/81/31
f 48/82/31 46/84/31 20/83/31
f 46/84/31 22/85/31 20/83/31
f 46/84/31 44/86/31 22/85/31
f 44/86/31 24/87/31 22/85/31
f 44/86/31 42/88/31 24/87/31
f 42/88/31 26/89/31 24/87/31
f 42/88/31 40/90/31 26/89/31
f 40/90/31 28/91/31 26/89/31
f 40/90/31 38/92/31 28/91/31
f 38/92/31 30/93/31 28/91/31
f 38/92/31 36/94/31 30/93/31
f 36/94/31 32/95/31 30/93/31
f 36/94/31 34/96/31 32/95/31
f 2/97/32 1/98/32 63/99/32
f 2/97/32 63/99/32 64/100/32
f 61/64/33 62/63/33 64/100/33
f 61/64/33 64/100/33 63/99/33
f 1/101/34 3/102/34 63/103/34
f 3/102/34 61/104/34 63/103/34
f 3/102/34 5/105/34 61/104/34
f 5/105/34 59/106/34 61/104/34
f 5/105/34 7/107/34 59/106/34
f 7/107/34 57/108/34 59/106/34
f 7/107/34 9/109/34 57/108/34
f 9/109/34 55/110/34 57/108/34
f 9/109/34 11/111/34 55/110/34
f 11/111/34 53/112/34 55/110/34
f 11/111/34 13/113/34 53/112/34
f 13/113/34 51/114/34 53/112/34
f 13/113/34 15/115/34 51/114/34
f 15/115/34 49/116/34 51/114/34
f 15/115/34 17/117/34 49/116/34
f 17/117/34 47/118/34 49/116/34
f 17/117/34 19/119/34 47/118/34
f 19/119/34 45/120/34 47/118/34
f 19/119/34 21/121/34 45/120/34
f 21/121/34 43/122/34 45/120/34
f 21/121/34 23/123/34 43/122/34
f 23/123/34 41/124/34 43/122/34
f 23/123/34 25/125/34 41/124/34
f 25/125/34 39/126/34 41/124/34
f 25/125/34 27/127/34 39/126/34
f 27/127/34 37/128/34 39/126/34
f 27/127/34 29/129/34 37/128/34
f 29/129/34 35/130/34 37/128/34
f 29/129/34 31/131/34 35/130/34
f 31/131/34 33/132/34 35/130/34
